<svg width="398" height="512.005" xmlns="http://www.w3.org/2000/svg">

 <g>
  <title>Layer 1</title>
  <g id="svg_1">
   <g id="svg_2">
    <path id="svg_3" fill="#472914" d="m28.444,512.00539c-2.427,0 -4.855,-0.929 -6.703,-2.778c-3.707,-3.707 -3.707,-9.7 0,-13.407l26.368,-26.368l27.913,-148.821c0.474,-2.588 2.001,-4.845 4.219,-6.258l104.296,-66.37c4.437,-2.807 10.287,-1.498 13.094,2.911c2.816,4.418 1.508,10.278 -2.911,13.094l-100.826,64.161l-27.695,147.655c-0.351,1.877 -1.252,3.603 -2.607,4.959l-28.444,28.444c-1.849,1.849 -4.277,2.778 -6.704,2.778"/>
    <path id="svg_4" fill="#472914" d="m47.407,256.00539l-37.926,0c-5.243,0 -9.481,-4.248 -9.481,-9.481c0,-5.234 4.238,-9.481 9.481,-9.481l35.3,0l45.151,-27.089c1.479,-0.891 3.157,-1.356 4.883,-1.356l66.37,0c5.243,0 9.481,4.248 9.481,9.481s-4.238,9.481 -9.481,9.481l-63.744,0l-45.151,27.089c-1.479,0.892 -3.157,1.356 -4.883,1.356"/>
    <path id="svg_5" fill="#472914" d="m161.194,189.63539c-0.616,0 -1.242,-0.057 -1.868,-0.19l-47.407,-9.481c-2.465,-0.484 -4.636,-1.944 -6.03,-4.03l-37.926,-56.889c-1.033,-1.555 -1.593,-3.394 -1.593,-5.262l0,-72.979l-17.37,-26.055c-2.911,-4.361 -1.735,-10.249 2.626,-13.151c4.361,-2.911 10.24,-1.735 13.151,2.626l18.963,28.444c1.033,1.555 1.593,3.394 1.593,5.262l0,72.979l34.162,51.238l43.548,8.713c5.129,1.024 8.467,6.021 7.433,11.15c-0.891,4.506 -4.854,7.625 -9.282,7.625"/>
    <path id="svg_6" fill="#472914" d="m369.777,512.00539c-2.427,0 -4.855,-0.929 -6.703,-2.778l-28.444,-28.444c-1.356,-1.356 -2.257,-3.082 -2.607,-4.959l-27.695,-147.655l-100.826,-64.161c-4.418,-2.816 -5.727,-8.676 -2.911,-13.094c2.816,-4.409 8.676,-5.717 13.094,-2.911l104.296,66.37c2.219,1.413 3.745,3.669 4.219,6.258l27.913,148.821l26.368,26.368c3.707,3.707 3.707,9.7 0,13.407c-1.849,1.849 -4.276,2.778 -6.704,2.778"/>
    <path id="svg_7" fill="#472914" d="m388.74,256.00539l-37.926,0c-1.726,0 -3.404,-0.465 -4.883,-1.356l-45.151,-27.089l-63.744,0c-5.243,0 -9.481,-4.248 -9.481,-9.481s4.238,-9.481 9.481,-9.481l66.37,0c1.726,0 3.404,0.465 4.883,1.356l45.151,27.089l35.3,0c5.243,0 9.481,4.248 9.481,9.481c0.001,5.234 -4.237,9.481 -9.481,9.481"/>
    <path id="svg_8" fill="#472914" d="m237.027,189.63539c-4.428,0 -8.391,-3.119 -9.282,-7.623c-1.033,-5.129 2.304,-10.126 7.434,-11.15l43.548,-8.713l34.162,-51.238l0,-72.98c0,-1.868 0.559,-3.707 1.593,-5.262l18.963,-28.444c2.901,-4.361 8.77,-5.537 13.151,-2.626c4.361,2.901 5.537,8.789 2.626,13.151l-17.37,26.055l0,72.979c0,1.868 -0.559,3.707 -1.593,5.262l-37.926,56.889c-1.394,2.086 -3.565,3.546 -6.03,4.03l-47.407,9.481c-0.627,0.132 -1.262,0.189 -1.869,0.189"/>
   </g>
   <g id="svg_9">
    <path id="svg_10" fill="#BDC3C7" d="m170.666,75.85739c-20.916,0 -37.926,-17.01 -37.926,-37.926s17.01,-37.926 37.926,-37.926c5.243,0 9.481,4.248 9.481,9.481s-4.238,9.481 -9.481,9.481c-10.458,0 -18.963,8.505 -18.963,18.963s8.505,18.963 18.963,18.963c5.243,0 9.481,4.248 9.481,9.481c0.001,5.236 -4.237,9.483 -9.481,9.483"/>
    <path id="svg_11" fill="#BDC3C7" d="m227.555,75.85739c-5.243,0 -9.482,-4.248 -9.482,-9.481c0,-5.234 4.238,-9.481 9.482,-9.481c10.458,0 18.963,-8.505 18.963,-18.963s-8.505,-18.963 -18.963,-18.963c-5.243,0 -9.482,-4.248 -9.482,-9.481s4.238,-9.481 9.482,-9.481c20.916,0 37.926,17.01 37.926,37.926s-17.01,37.924 -37.926,37.924"/>
   </g>
   <g id="svg_12">
    <polygon id="svg_13" fill="#633C21" points="180.1479949951172,322.37640380859375 218.07400512695312,322.37640380859375 218.07400512695312,227.56138610839844 180.1479949951172,227.56138610839844 "/>
    <path id="svg_14" fill="#633C21" d="m209.389,161.19139l-20.556,0c-25.742,0 -46.611,-20.869 -46.611,-46.62l0,-20.538c0,-25.752 20.869,-46.62 46.611,-46.62l20.556,0c25.742,0 46.611,20.869 46.611,46.62l0,20.537c0,25.752 -20.869,46.621 -46.611,46.621"/>
   </g>
   <g id="svg_15">
    <path id="svg_16" fill="#805333" d="m246.518,199.11739c0,20.945 -21.22,37.926 -47.407,37.926s-47.407,-16.981 -47.407,-37.926s21.22,-37.926 47.407,-37.926s47.407,16.981 47.407,37.926"/>
    <path id="svg_17" fill="#805333" d="m199.111,474.07939l0,0c-36.655,0 -66.37,-29.715 -66.37,-66.37l0,-37.926c0,-36.655 29.715,-66.37 66.37,-66.37s66.37,29.715 66.37,66.37l0,37.926c0,36.656 -29.715,66.37 -66.37,66.37"/>
   </g>
  </g>
  <g id="svg_18"/>
  <g id="svg_19"/>
  <g id="svg_20"/>
  <g id="svg_21"/>
  <g id="svg_22"/>
  <g id="svg_23"/>
  <g id="svg_24"/>
  <g id="svg_25"/>
  <g id="svg_26"/>
  <g id="svg_27"/>
  <g id="svg_28"/>
  <g id="svg_29"/>
  <g id="svg_30"/>
  <g id="svg_31"/>
  <g id="svg_32"/>
 </g>
</svg>